<?xml version="1.0" encoding="UTF-8" standalone="no"?>
<!-- Created with Inkscape (http://www.inkscape.org/) -->

<svg
   version="1.1"
   id="svg1"
   width="1496"
   height="1496"
   viewBox="0 0 1496 1496"
   sodipodi:docname="34802.eps"
   xmlns:inkscape="http://www.inkscape.org/namespaces/inkscape"
   xmlns:sodipodi="http://sodipodi.sourceforge.net/DTD/sodipodi-0.dtd"
   xmlns="http://www.w3.org/2000/svg"
   xmlns:svg="http://www.w3.org/2000/svg">
  <defs
     id="defs1" />
  <sodipodi:namedview
     id="namedview1"
     pagecolor="#ffffff"
     bordercolor="#000000"
     borderopacity="0.25"
     inkscape:showpageshadow="2"
     inkscape:pageopacity="0.0"
     inkscape:pagecheckerboard="0"
     inkscape:deskcolor="#d1d1d1">
    <inkscape:page
       x="0"
       y="0"
       inkscape:label="1"
       id="page1"
       width="1496"
       height="1496"
       margin="0"
       bleed="0" />
  </sodipodi:namedview>
  <g
     id="g1"
     inkscape:groupmode="layer"
     inkscape:label="1">
    <g
       id="group-R5">
      <path
         id="path2"
         d="M 11220,0 H 0 V 11220 H 11220 V 0"
         style="fill:#829B91;fill-opacity:1;fill-rule:nonzero;stroke:none"
         transform="matrix(0.13333333,0,0,-0.13333333,0,1496)" />
      <path
         id="path3"
         d="m 9988.51,4963.69 c 0,79.46 0,158.92 0,238.38 -39.17,0 -78.33,0 -117.5,0 0.07,-79.46 0.13,-158.92 0.22,-238.38 39.1,0 78.19,0 117.28,0"
         style="fill:#929496;fill-opacity:1;fill-rule:nonzero;stroke:none"
         transform="matrix(0.13333333,0,0,-0.13333333,0,1496)" />
      <path
         id="path4"
         d="m 2359.29,7596.16 c -2.32,-0.46 -3.03,-0.7 0,0 v 0"
         style="fill:#272525;fill-opacity:1;fill-rule:nonzero;stroke:none"
         transform="matrix(0.13333333,0,0,-0.13333333,0,1496)" />
      <path
         id="path5"
         d="m 6786.11,5859.16 h -222.12 c -35.76,0 -65.01,-29.26 -65.01,-65.01 0,-35.76 29.25,-65.01 65.01,-65.01 h 222.12 c 35.76,0 65.01,29.25 65.01,65.01 0,35.75 -29.25,65.01 -65.01,65.01"
         style="fill:#272525;fill-opacity:1;fill-rule:nonzero;stroke:none"
         transform="matrix(0.13333333,0,0,-0.13333333,0,1496)" />
      <path
         id="path6"
         d="m 6034.86,5859.16 h -222.12 c -35.76,0 -65.01,-29.26 -65.01,-65.01 0,-35.76 29.25,-65.01 65.01,-65.01 h 222.12 c 35.76,0 65.01,29.25 65.01,65.01 0,35.75 -29.25,65.01 -65.01,65.01"
         style="fill:#272525;fill-opacity:1;fill-rule:nonzero;stroke:none"
         transform="matrix(0.13333333,0,0,-0.13333333,0,1496)" />
      <path
         id="path7"
         d="m 3229.81,3270.95 c -222.58,-78.18 -473.56,-8.8 -621.41,176.13 -144.16,180.33 -157.03,438.94 -36.49,634.55 119.64,194.13 357.36,298.18 581.16,250.34 256.05,-54.72 437.88,-280.37 440.94,-541.31 -2.69,-228.95 -145.3,-442.83 -364.2,-519.71 z m 56.73,1191.22 c -277.03,103.5 -605.26,15.28 -793.06,-213.02 -190.85,-232 -221.39,-566.09 -65.56,-825.42 155.28,-258.41 459.14,-389.9 753.99,-334.01 332.97,63.11 570.71,366.69 574.63,700.94 -3.51,299.4 -189.06,566.55 -470,671.51"
         style="fill:#272525;fill-opacity:1;fill-rule:nonzero;stroke:none"
         transform="matrix(0.13333333,0,0,-0.13333333,0,1496)" />
      <path
         id="path8"
         d="m 3059.43,3600.48 c -113.56,0 -208.01,94.45 -208.01,208.01 0,113.57 94.45,208.01 208.01,208.01 115.82,0 204.95,-94.49 208.01,-208.01 -3.06,-113.5 -92.18,-208.01 -208.01,-208.01 z m 114.42,517.25 c -127.66,48.63 -278.72,7.99 -366.15,-96.39 -88.54,-105.71 -103.17,-259.78 -33.13,-379.36 70.04,-119.59 209.1,-181.07 344.69,-157.7 154.28,26.58 261.37,162.51 269.63,314.71 0.33,3.04 0.54,6.17 0.45,9.5 0.11,4.12 -0.19,7.97 -0.73,11.66 -7.88,133.19 -88.32,249.4 -214.76,297.58"
         style="fill:#272525;fill-opacity:1;fill-rule:nonzero;stroke:none"
         transform="matrix(0.13333333,0,0,-0.13333333,0,1496)" />
      <path
         id="path9"
         d="m 7943.17,3270.95 c -222.58,-78.18 -473.56,-8.8 -621.41,176.13 -144.16,180.33 -157.03,438.94 -36.49,634.55 119.64,194.13 357.36,298.18 581.17,250.34 256.04,-54.72 437.87,-280.37 440.93,-541.31 -2.68,-228.95 -145.3,-442.83 -364.2,-519.71 z m 56.73,1191.22 c -277.02,103.5 -605.26,15.28 -793.06,-213.02 -190.85,-232 -221.39,-566.09 -65.56,-825.42 155.28,-258.41 459.14,-389.9 754,-334.01 332.97,63.11 570.7,366.69 574.62,700.94 -3.51,299.4 -189.06,566.55 -470,671.51"
         style="fill:#272525;fill-opacity:1;fill-rule:nonzero;stroke:none"
         transform="matrix(0.13333333,0,0,-0.13333333,0,1496)" />
      <path
         id="path10"
         d="m 7772.8,3600.48 c -113.56,0 -208.01,94.45 -208.01,208.01 0,113.57 94.44,208.01 208.01,208.01 115.82,0 204.94,-94.49 208.01,-208.01 -3.07,-113.5 -92.19,-208.01 -208.01,-208.01 z m 114.41,517.25 c -127.66,48.63 -278.72,7.99 -366.15,-96.39 -88.54,-105.71 -103.17,-259.78 -33.13,-379.36 70.04,-119.59 209.1,-181.07 344.7,-157.7 154.27,26.58 261.36,162.51 269.62,314.71 0.34,3.04 0.54,6.17 0.46,9.5 0.11,4.12 -0.2,7.97 -0.74,11.66 -7.88,133.19 -88.31,249.4 -214.76,297.58"
         style="fill:#272525;fill-opacity:1;fill-rule:nonzero;stroke:none"
         transform="matrix(0.13333333,0,0,-0.13333333,0,1496)" />
      <path
         id="path11"
         d="m 9988.61,4963.55 c -39.09,0 -78.18,0 -117.27,0 -0.09,79.46 -0.15,158.91 -0.23,238.37 39.17,0 78.34,0 117.5,0 0,-79.46 0,-158.91 0,-238.37 z m -356.99,-180.59 h -92.7 v -178.79 h 61.82 c -33.52,-86.86 -91.09,-162.54 -176.33,-216.68 -124.44,-79.05 -257.46,-73.02 -397.66,-73.02 -114.18,0 -228.36,0 -342.54,0 -75.41,324.6 -320.08,593.04 -637.49,699.68 -342.92,115.21 -733.64,20.81 -988.79,-234.43 -108.2,-108.23 -189.34,-241.95 -236.22,-387.11 -8.8,-25.7 -16.61,-51.75 -23.21,-78.14 -304.89,0 -609.79,0 -914.68,0 -517.44,0 -1034.89,0 -1552.33,0 -96.74,0 -193.48,0 -290.22,0 -75.41,324.61 -320.06,593.05 -637.48,699.68 -342.92,115.21 -733.65,20.81 -988.79,-234.43 -108.2,-108.23 -189.35,-241.96 -236.22,-387.13 -8.93,-26.06 -16.85,-52.49 -23.52,-79.25 -48.55,-1.08 -97.67,-1.62 -144.68,5.6 -114.98,17.64 -220.89,79.39 -293.5,170.22 -29.41,36.79 -50.15,75.27 -64.84,115.01 h 52.75 v 178.79 h -85.74 c -2.92,54.63 -1.75,110.48 -1.75,166.75 0,142.58 -11.73,290.55 2.16,432.7 3.22,32.99 7.75,66.02 13.02,99.05 5.1,25.33 10.37,50.54 14.86,75.46 5.42,30.1 10.85,60.21 16.28,90.32 10.03,49.16 20.18,98.17 28.96,146.88 8.09,44.88 15.38,89.89 22.43,134.94 6.53,34.17 12.56,68.47 15.89,102.92 17.6,114.02 36.05,227.8 63.79,339.8 1.17,4.72 1.84,9.26 2.29,13.71 16.06,62.28 33.37,124.25 51.78,185.85 69.2,231.59 150.19,461.95 256.41,679.37 43.2,88.41 90.32,177.24 150.41,255.54 0.12,0.16 19.17,23.19 29.3,34.08 12.3,13.22 25.26,25.76 39.13,37.32 0.65,0.53 1.16,0.97 1.59,1.35 0.9,0.5 2.07,1.18 3.72,2.18 5.57,3.37 11.25,6.71 16.76,10.17 0.85,0.53 1.52,0.95 2.19,1.38 0.49,0.21 1.11,0.49 2.06,0.95 5.74,2.78 12.54,3.36 18.66,4.91 -5.01,-1.27 -8.1,-2.01 -9.9,-2.43 2.68,0.53 7.42,1.33 10.75,1.19 5.32,-0.21 10.7,0 16.02,0 21.81,0.03 43.62,0 65.42,0 35.35,0 70.69,0 106.04,0 21.37,-4.53 43.38,-7.03 65.73,-7.22 30.11,-0.25 60.23,0 90.33,0 136.13,0 272.25,0 408.37,0 481.99,0 963.97,0 1445.96,0 588.5,0 1177.01,0 1765.51,0 487.5,0 975.01,0 1462.51,0 139.44,0 278.88,0 418.33,0 54.8,0 108.99,-0.42 159.78,8.53 173.22,0.17 352.07,-59.54 436.83,-221.44 4.01,-7.66 9.21,-14.12 15.21,-19.48 13.08,-17.23 43.26,-59.29 60.6,-85.23 25.89,-38.72 50.33,-78.41 73.49,-118.82 54.7,-95.44 102.73,-194.98 143.75,-297.05 118.75,-295.52 190.57,-608.08 237.48,-922.44 4.74,-31.77 46.32,-63.14 78.36,-59.66 13.05,1.42 26.12,0.46 39.17,-0.08 1.12,-0.05 2.81,-0.24 4.54,-0.47 5.92,-1.04 11.83,-2.15 17.69,-3.57 17.31,-4.17 30.96,-9.5 31.84,-9.93 33.18,-16.16 50.5,-30.19 69.24,-60.47 14.51,-23.45 23.42,-49.14 29.05,-75.7 -5.72,0 -11.43,0 -17.15,0 -42.64,0 -84.91,2.76 -125.22,-14.27 -72.23,-30.5 -116.88,-107.25 -107.09,-185.1 10.07,-80.1 74.3,-144.34 154.4,-154.4 35.61,-4.47 72.81,-1.66 108.58,-1.66 2.19,0 4.39,0 6.58,0 0.7,-195.3 2.15,-390.67 0.23,-585.93 z M 2504.17,7907.44 c 21.78,55.84 74,72.53 127.6,72.76 91.35,0.41 182.71,0 274.06,0 414.99,0 829.98,0 1244.97,0 565.29,0 1130.59,0 1695.89,0 523.54,0 1047.08,0 1570.63,0 289.73,0 579.46,0 869.18,0 13.41,0 26.82,0 40.22,0 132.64,-4.92 144.79,-178.19 40.29,-219.01 -12.56,-0.18 -25.09,-0.57 -37.55,-1.3 -123.63,0 -247.27,0 -370.91,0 -313.87,0 -627.74,0 -941.62,0 -423.15,0 -846.29,0 -1269.43,0 -446.09,0 -892.18,0 -1338.27,0 -387.88,0 -775.77,0 -1163.65,0 -222.22,0 -444.42,0 -666.63,0 -59.56,20.17 -101.03,80.25 -74.78,147.55 z M 9465.74,5873.68 c 3.92,-0.57 6.45,-1.05 0,0 z M 1372.47,4902.15 c -39.4,0 -78.81,0 -118.22,0 0,67.91 0,135.82 0,203.74 41.19,0 82.37,0 123.56,0 -5.54,-67.58 -5.97,-135.68 -5.34,-203.74 z m 8643.23,353.95 c -48.31,0 -96.63,0 -144.94,0 -0.5,37.33 -1,74.66 -1.5,111.98 26.42,-0.23 53.04,0.8 77.69,7.82 81.55,23.26 135.65,104.96 127.15,188.76 -9.3,92.3 -86.69,155.35 -176.51,159.66 -40.88,0 -81.76,0 -122.64,0 -17.18,109.28 -65.23,212.72 -166.71,269.65 -28.12,15.78 -60.63,28.47 -94.16,36.22 -17.58,80.94 -37.12,161.38 -59.15,241.25 -3.39,12.27 -8.57,22.39 -14.97,30.59 -86.75,408.75 -229.54,812.13 -480.28,1145.98 -3.54,11.08 -9.77,20.51 -17.84,28.16 -80.19,139.79 -218.51,224.54 -370.79,262.12 94.33,175.29 -34.98,387.98 -232.18,403.57 -3.9,0.52 -7.9,0.87 -12.15,0.87 -216.01,0 -432.03,0 -648.04,0 -507.7,0 -1015.4,0 -1523.1,0 -587.17,0 -1174.35,0 -1761.53,0 -459.23,0 -918.46,0 -1377.69,0 -116.64,0 -233.27,0 -349.91,0 -18.36,0 -36.83,0.59 -55.18,0 -194.61,-6.23 -330.69,-203.35 -254.56,-383.67 -132.23,-12.08 -222.12,-135.08 -288.43,-239.04 -127.92,-200.57 -215.76,-429.25 -294.1,-652.83 -56.04,-159.91 -107.63,-323.04 -147.26,-488.45 -48.02,-154.98 -92.54,-312.75 -117.48,-473.07 -4.73,-30.41 -9.15,-61.01 -11.58,-91.7 -0.6,-7.54 -1.09,-15.11 -1.37,-22.68 0.7,10.41 2.6,9.24 1.85,3.34 -2.9,-23.15 -8.49,-46.28 -12.7,-69.21 -31.17,-169.79 -62.06,-339.63 -93.52,-509.36 -3.44,-18.6 -6.31,-37.27 -8.7,-56 -52.08,0 -104.17,0 -156.26,0 -14.64,0 -27.09,-12.41 -27.09,-27.09 0,-85.97 0,-171.94 0,-257.91 0,-14.65 12.42,-27.09 27.09,-27.09 48.65,0 97.3,0 145.95,0 0.28,-21.7 0.54,-43.37 0.68,-65.01 h -228.78 v -178.79 h 227.69 c 0.15,-140.36 10.13,-278.96 83.09,-405.91 81.05,-140.99 218.04,-246.96 373.95,-292.28 106.12,-30.86 216.47,-25.05 325.62,-25.05 32.6,0 72.55,25.01 78.36,59.66 50.14,299.12 259.67,552.25 550.14,646.87 295.6,96.28 628.07,22 849.12,-198.22 122.84,-122.36 199.48,-278.19 228.06,-448.65 5.81,-34.65 45.37,-59.66 78.36,-59.66 331.15,0 662.3,0 993.45,0 529.77,0 1059.53,0 1589.29,0 121.03,0 242.05,0 363.08,0 32.6,0 72.55,25.01 78.36,59.66 50.14,299.12 259.67,552.25 550.14,646.87 295.6,96.28 628.07,22 849.13,-198.22 122.83,-122.36 199.47,-278.19 228.04,-448.65 5.81,-34.65 45.38,-59.66 78.37,-59.66 116.29,0 232.58,0 348.87,0 133.08,0 275.81,-12.39 404.6,27.1 215.35,66.03 391.33,247.78 435.73,470.88 14.5,72.88 16.45,149.21 15.61,225.26 h 156.13 v 178.79 h -158.69 c -0.01,42.14 -0.08,84.27 -0.12,126.41 48.1,0 96.21,0 144.31,0 8,0 14,2.89 18.3,7.24 0.3,0.27 0.6,0.59 0.9,0.87 0.2,0.18 0.4,0.35 0.5,0.53 4.5,4.33 7.4,10.42 7.4,18.45 0,97.52 0,195.04 0,292.55 0,14.64 -12.4,27.09 -27.1,27.09"
         style="fill:#272525;fill-opacity:1;fill-rule:nonzero;stroke:none"
         transform="matrix(0.13333333,0,0,-0.13333333,0,1496)" />
      <path
         id="path12"
         d="m 6064.83,6363.6 c -7.79,-69.39 -67,-118.35 -134.94,-120.66 -354.35,0 -708.7,0 -1063.05,0 -169.81,0 -339.62,0 -509.43,0 -71.37,0 -141.96,21.07 -163.55,99.61 -17.93,65.22 -4.87,148.05 -4.87,214.48 0,115.42 0,230.83 0,346.24 0,74.17 -15.3,166.81 49.97,219.49 42.87,34.59 92.78,30.35 143.66,30.35 74.57,0 149.14,0 223.71,0 418.77,0 837.55,0 1256.32,0 48.1,0 99.1,5.77 141.27,-22.33 73.61,-49.04 61.41,-134.61 61.41,-210.99 0,-114.3 0,-228.61 0,-342.92 0,-69.7 7.3,-143.79 -0.5,-213.27 z m 163.03,631.67 c 0,148.05 -87.38,284.96 -239.95,314.26 -49.92,9.58 -102.53,6.11 -153.09,6.11 -90.31,0 -180.62,0 -270.93,0 -250.96,0 -501.92,0 -752.88,0 -159.61,0 -319.34,1.77 -478.95,0 -150.22,-1.67 -281.55,-105.93 -302.17,-257.87 -11.01,-81.21 -3.43,-167.07 -3.43,-248.71 0,-118.57 0,-237.14 0,-355.71 0,-115.07 11.6,-224.3 108.3,-303.83 123.31,-101.43 326.56,-69.11 475.8,-69.11 429.87,0 859.76,0 1289.64,0 9.89,0 19.79,0 29.69,0 3.58,0 7,0.23 10.34,0.6 165.04,10.7 286.06,141.19 287.63,307.16 0.92,97.88 0,195.81 0,293.7 0,104.47 0,208.93 0,313.4"
         style="fill:#272525;fill-opacity:1;fill-rule:nonzero;stroke:none"
         transform="matrix(0.13333333,0,0,-0.13333333,0,1496)" />
      <path
         id="path13"
         d="m 3660.31,6322.52 c -22.12,-49.18 -70.89,-77.79 -123.53,-79.58 -274.48,0 -548.96,0 -823.45,0 -103.96,0 -274,-27.61 -294.14,117.09 -5.98,42.99 -1.01,89.56 -1.01,132.74 0,86.3 0,172.59 0,258.89 0,74.51 0,149.02 0,223.52 0,60.77 4.88,118.01 61.41,155.6 38.59,25.67 81.75,22.33 125.52,22.33 64.11,0 128.22,0 192.33,0 175.96,0 351.92,0 527.88,0 58.84,0 117.68,0 176.52,0 52.88,0 103.55,-4.78 140.03,-49.98 35.64,-44.17 30.35,-97.21 30.35,-149.93 0,-79.68 0,-159.35 0,-239.02 0,-83.21 0,-166.42 0,-249.64 0,-45 7.02,-99.92 -11.91,-142.02 z m 174.44,682.24 c -0.91,113.03 -53.11,217.22 -153.94,273.43 -60.97,34 -125.73,37.45 -193,37.45 -167.23,0 -334.46,0 -501.69,0 -141.65,0 -283.42,1.71 -425.06,0 -111.99,-1.36 -219.25,-58.09 -271.31,-160.08 -35.02,-68.61 -34.1,-138.82 -34.1,-212.86 0,-172.97 0,-345.93 0,-518.9 0,-88.41 13.33,-170.41 73.53,-240.45 62.46,-72.66 150.69,-102.56 244.09,-102.94 311.59,-1.26 623.21,0 934.81,0 9.56,0 19.13,0 28.7,0 3.5,0 6.87,0.21 10.14,0.56 147.57,9.61 269.8,117.96 285.84,268.11 5.67,53.05 1.99,107.87 1.99,161.1 0,164.84 1.33,329.74 0,494.58"
         style="fill:#272525;fill-opacity:1;fill-rule:nonzero;stroke:none"
         transform="matrix(0.13333333,0,0,-0.13333333,0,1496)" />
      <path
         id="path14"
         d="m 8708.24,6264.61 c -383.86,0 -767.74,0 -1151.6,0 -231.96,0 -463.92,0 -695.88,0 -54.37,0 -108.77,-0.42 -163.15,0 -88.42,0.69 -147.32,59.8 -148.03,148.35 -1.67,206.49 -5.42,414.13 0,620.55 2.42,92.24 69.99,140.95 156.35,141.27 68.02,0.25 136.03,0 204.05,0 470.5,0 941,0 1411.5,0 38.41,0 100.54,8.98 133.43,-13.99 50.2,-35.07 71.17,-115.47 95.63,-168.21 14.36,-30.98 29.57,-61.59 44.35,-92.36 55.88,-116.36 111.75,-232.71 167.63,-349.06 22.73,-47.35 45.47,-94.7 68.21,-142.05 7.81,-16.24 25.67,-40.1 27.86,-58.61 7.14,-60.36 -108.93,-84.8 -150.35,-85.89 z m 156.55,447.84 c -53.33,111.06 -106.66,222.11 -159.99,333.16 -61.69,128.46 -113.6,273.7 -276.43,290.12 -48.54,4.89 -98.68,1.58 -147.34,1.58 -107.18,0 -214.36,0 -321.53,0 -280.76,0 -561.54,0 -842.3,0 -106.88,0 -213.76,0 -320.64,0 -57.68,0 -119.92,5.1 -176.67,-7.33 -101.34,-22.18 -185.19,-100.19 -217.93,-198.05 -14.73,-44.05 -14.91,-89.39 -14.91,-135.07 0,-129.4 0,-258.8 0,-388.2 0,-96.29 -16.01,-215.32 17.46,-307.78 47.23,-130.46 167.87,-198.33 301.83,-198.8 183.4,-0.64 366.8,0 550.2,0 474.14,0 948.28,0 1422.42,0 9.76,0 19.52,0 29.28,0 3.27,0 6.44,0.16 9.51,0.47 179.59,9.28 366.1,148.07 275.9,341.57 -41.91,89.91 -85.91,178.91 -128.86,268.33"
         style="fill:#272525;fill-opacity:1;fill-rule:nonzero;stroke:none"
         transform="matrix(0.13333333,0,0,-0.13333333,0,1496)" />
      <path
         id="path15"
         d="m 9085.8,6503.07 c -7.32,-91.3 -0.97,-185.47 -0.97,-277.03 0,-143.79 0,-287.6 0,-431.39 0,-21.68 0,-43.36 0,-65.03 -5.29,-6.68 -7.57,-15.97 -6.02,-24.93 32.89,-190.49 -85.05,-383.02 -279.23,-420.68 -62.49,-12.12 -134.58,-5.41 -198.37,-5.41 -227.55,0 -455.09,0 -682.63,0 -64.85,0 -129.7,0 -194.54,0 -1.69,0 -3.34,-0.21 -4.95,-0.52 -377.05,-12.55 -721.39,-212.27 -919.97,-532.44 -52.42,0 -104.85,0 -157.27,0 -67.27,0 -143.28,-9.46 -203.63,26 -63.42,37.25 -84.16,91.95 -90.9,152.46 0.28,20.21 -0.07,40.47 -0.07,60.65 0,146.56 0,293.12 0,439.69 0,431.6 0,863.21 0,1294.82 0,140.51 0,281.03 0,421.54 0,26.37 1.28,53.26 -1.25,79.55 -0.07,0.76 -0.24,1.49 -0.33,2.25 11.26,111.4 88.32,186.48 209.12,187 103.17,0.44 206.4,-1.17 309.52,0.85 195.99,3.82 392.44,0 588.46,0 297.32,0 594.63,0 891.95,0 73.97,0 147.97,0.58 221.94,0 134.17,-1.06 167.2,-126.71 216.41,-229.19 57.8,-120.37 115.6,-240.73 173.4,-361.09 29.55,-61.52 59.09,-123.05 88.64,-184.57 21.32,-44.4 44.77,-81.58 40.69,-132.53 z M 6103.45,4723.97 c -276.51,0 -553.02,0 -829.52,0 -357.72,0 -715.44,0 -1073.16,0 -33.2,0 -68.92,-2.69 -101.34,5.12 -79.06,19.08 -127.52,80.54 -141.79,154.28 12.55,123.59 1.12,286.39 1.12,316.22 0,287.24 0,574.47 0,861.71 0,281.68 0,563.37 0,845.05 0,91.2 13.48,206.28 -6.23,305.47 1.76,12.61 4.11,24.92 7.37,36.73 43.9,158.64 205.54,139.38 332.08,139.38 174.09,0 348.19,0 522.28,0 385.89,0 771.78,0 1157.68,0 39.81,0 79.64,0.33 119.45,0 103.04,-0.84 186.29,-67.33 199.87,-168.5 -1.61,-26.5 -1.35,-53.59 -1.35,-81.15 0,-602.26 0,-1204.51 0,-1806.77 0,-107.68 0,-215.36 0,-323.04 0,-29.76 0.26,-59.02 3.04,-87.42 -2.02,-108.06 -79.18,-193.34 -189.5,-197.08 z m -2214.23,96.48 c -238.4,352.2 -626.97,583.73 -1054.91,607.89 -63.79,3.6 -127.83,2.65 -191.47,-2.93 -60.81,-5.33 -116.79,-10.51 -176.75,5.55 -102.36,27.42 -189.73,100.78 -232.88,197.84 -36.09,81.15 -29.77,168.65 -29.77,254.99 0,271.31 0,542.62 0,813.93 0,110.87 0,221.75 0,332.62 0,21.54 -1.09,43.41 0,64.93 3.95,77.55 63.92,146.09 119.87,194.63 45.99,39.9 100.44,74.32 162.61,76.36 28.64,0.94 57.48,0 86.13,0 121.95,0 243.91,0 365.86,0 249.69,0 499.38,0 749.07,0 35.91,0 69.85,-0.35 104,-15.18 61.09,-26.51 98.01,-80.16 109.63,-142.23 -1.05,-10.38 -1.66,-20.97 -1.69,-31.8 -0.37,-116.67 0,-233.35 0,-350.02 0,-429.61 0,-859.22 0,-1288.83 0,-165.64 0,-331.27 0,-496.91 0,-52.13 -2.05,-104.82 4.8,-154.46 -1.71,-23.09 -6.33,-45.11 -14.5,-66.38 z m 5155.6,1940.51 c -67.78,141.15 -135.57,282.31 -203.36,423.47 -59.46,123.81 -103.64,275.92 -264.96,280.19 -72.09,1.91 -144.49,0 -216.6,0 -326.16,0 -652.32,0 -978.48,0 -195.16,0 -390.38,-0.84 -585.51,-0.84 -146.42,0 -349.26,37.82 -452.76,-92.43 -13,-16.37 -22.73,-33.21 -30.17,-50.46 -42.91,71.91 -121.7,118.57 -210.24,121.22 -304.36,9.08 -610.36,0 -914.82,0 -342.27,0 -684.56,1.47 -1026.82,0 -111.18,-0.48 -197.03,-56.77 -237.2,-145.16 -18.57,35.92 -45.39,66.95 -84.06,90.09 -73.02,43.69 -162.13,33.4 -243.67,33.4 -133.51,0 -267.02,0 -400.53,0 -236.82,0 -474.79,6.93 -711.52,0 -139.79,-4.1 -289.6,-143.6 -327.39,-274.57 -17.99,-62.36 -7.46,-138.51 -7.46,-202.21 0,-289.87 0,-579.75 0,-869.62 0,-94.66 -0.29,-189.33 0,-283.99 0.45,-148.05 64.34,-284.16 192.7,-363.87 94.43,-58.64 193.2,-64.38 300.87,-54.94 126.63,11.1 254.86,4.19 379.32,-21.8 231.72,-48.41 447.55,-160.87 620.77,-322.12 87.27,-81.23 162.46,-173.57 225.85,-274.45 2.69,-4.28 6.02,-7.25 9.63,-9.3 3.76,-2.37 8.28,-3.96 13.76,-4.12 8,-0.23 15.04,2.55 21.4,7.44 21.45,-19.68 56.65,-38.82 114.35,-47.27 87.3,-44.55 201.14,-29.83 295.74,-29.83 189.63,0 379.26,0 568.88,0 380.11,0 760.21,0 1140.31,0 23.54,0 47.07,0 70.6,0 99.12,3.37 181.6,60.05 220.24,143.44 9.63,-17.45 21.88,-34.24 37.81,-50.18 60.91,-60.91 136.59,-71.59 218.07,-71.59 73.47,0 148.63,-4.83 221.94,0 35.72,2.35 41.46,23.63 61,53.62 38.83,59.57 83.7,114.95 133.69,165.51 94.5,95.57 206.98,172.94 330.21,226.72 125.66,54.83 260.84,82.86 397.63,86.82 0.8,0.02 1.58,0.2 2.37,0.29 187.17,0 374.35,0 561.52,0 112.36,0 224.72,0 337.08,0 87.09,0 174.24,-5.39 257.01,27.77 179.88,72.05 274.94,257.21 252.31,444.1 2.88,4.02 4.68,9.13 4.68,15.42 0,254.76 -8.54,510.96 0,765.57 1.59,47.44 0.67,85.35 -20.29,129.79 -24.27,51.46 -49.27,102.59 -73.9,153.89"
         style="fill:#272525;fill-opacity:1;fill-rule:nonzero;stroke:none"
         transform="matrix(0.13333333,0,0,-0.13333333,0,1496)" />
    </g>
  </g>
</svg>
